<svg xmlns="http://www.w3.org/2000/svg" width="256" height="256" viewBox="0 0 256 256" fill="none">
  <defs>
    <linearGradient id="ring" x1="0" y1="0" x2="1" y2="1">
      <stop offset="0" stop-color="#A78BFA"/>
      <stop offset="1" stop-color="#22C55E"/>
    </linearGradient>
    <linearGradient id="bg" x1="0" y1="0" x2="0" y2="1">
      <stop offset="0" stop-color="#0B1220"/>
      <stop offset="1" stop-color="#111827"/>
    </linearGradient>
  </defs>

  <circle cx="128" cy="128" r="124" fill="url(#bg)" stroke="url(#ring)" stroke-width="6"/>

  <circle cx="128" cy="108" r="44" fill="#F8FAFC" fill-opacity="0.95"/>
  <path d="M78 206 C 86 170, 110 152, 128 152 C 146 152, 170 170, 178 206" fill="#F8FAFC" fill-opacity="0.95"/>

  <path d="M96 100 C 104 72, 124 62, 145 66 C 166 70, 178 86, 180 106 C 170 98, 156 92, 138 92 C 118 92, 104 96, 96 100 Z" fill="#111827" fill-opacity="0.85"/>

  <path d="M92 206 C 98 176, 114 162, 128 162 C 142 162, 158 176, 164 206" fill="#111827" fill-opacity="0.18"/>
  <path d="M112 165 L128 178 L144 165" stroke="#111827" stroke-opacity="0.55" stroke-width="6" stroke-linecap="round" stroke-linejoin="round"/>

  <circle cx="176" cy="74" r="18" fill="#22C55E" fill-opacity="0.85"/>
  <path d="M168 74 L174 80 L185 67" stroke="#052E16" stroke-width="5" stroke-linecap="round" stroke-linejoin="round"/>
</svg>
