<svg xmlns="http://www.w3.org/2000/svg" width="1600" height="520" viewBox="0 0 1600 520" fill="none">
  <defs>
    <linearGradient id="bg" x1="0" y1="0" x2="1" y2="1">
      <stop offset="0" stop-color="#0B1220"/>
      <stop offset="0.45" stop-color="#1B2A6B"/>
      <stop offset="1" stop-color="#6D28D9"/>
    </linearGradient>
    <linearGradient id="glow" x1="0" y1="0" x2="0" y2="1">
      <stop offset="0" stop-color="#A78BFA" stop-opacity="0.85"/>
      <stop offset="1" stop-color="#22C55E" stop-opacity="0.0"/>
    </linearGradient>
    <filter id="soft" x="-20%" y="-20%" width="140%" height="140%">
      <feGaussianBlur stdDeviation="18"/>
    </filter>
  </defs>

  <rect width="1600" height="520" fill="url(#bg)"/>

  <g opacity="0.55" filter="url(#soft)">
    <circle cx="280" cy="160" r="120" fill="#22C55E"/>
    <circle cx="1300" cy="360" r="160" fill="#A78BFA"/>
    <circle cx="980" cy="120" r="90" fill="#38BDF8"/>
  </g>

  <path d="M90 430 C 260 350, 420 460, 590 390 C 760 320, 860 440, 1040 370 C 1220 300, 1360 420, 1510 340" stroke="#FFFFFF" stroke-opacity="0.14" stroke-width="6" fill="none"/>

  <g transform="translate(980 90)" opacity="0.95">
    <rect x="0" y="0" width="420" height="300" rx="22" fill="#0B1020" fill-opacity="0.55" stroke="#FFFFFF" stroke-opacity="0.16"/>
    <rect x="28" y="40" width="180" height="34" rx="10" fill="#111A33" stroke="#FFFFFF" stroke-opacity="0.10"/>
    <rect x="28" y="88" width="240" height="18" rx="8" fill="#111A33" stroke="#FFFFFF" stroke-opacity="0.10"/>
    <rect x="28" y="120" width="280" height="18" rx="8" fill="#111A33" stroke="#FFFFFF" stroke-opacity="0.10"/>
    <rect x="28" y="152" width="220" height="18" rx="8" fill="#111A33" stroke="#FFFFFF" stroke-opacity="0.10"/>

    <g transform="translate(260 40)">
      <path d="M70 210 L155 58" stroke="#C7D2FE" stroke-opacity="0.65" stroke-width="10" stroke-linecap="round"/>
      <path d="M30 210 L115 58" stroke="#C7D2FE" stroke-opacity="0.65" stroke-width="10" stroke-linecap="round"/>
      <path d="M54 164 L131 164" stroke="#C7D2FE" stroke-opacity="0.55" stroke-width="8" stroke-linecap="round"/>
      <path d="M42 128 L119 128" stroke="#C7D2FE" stroke-opacity="0.55" stroke-width="8" stroke-linecap="round"/>
      <path d="M30 92 L107 92" stroke="#C7D2FE" stroke-opacity="0.55" stroke-width="8" stroke-linecap="round"/>
      <path d="M18 58 L95 58" stroke="#C7D2FE" stroke-opacity="0.55" stroke-width="8" stroke-linecap="round"/>

      <g transform="translate(118 68)">
        <circle cx="0" cy="0" r="16" fill="#22C55E"/>
        <path d="M-10 6 C -2 -8, 8 -8, 10 6" stroke="#052E16" stroke-width="4" stroke-linecap="round" fill="none"/>
      </g>

      <g transform="translate(88 124)">
        <circle cx="0" cy="-20" r="16" fill="#F8FAFC" fill-opacity="0.95"/>
        <rect x="-22" y="-6" width="44" height="46" rx="16" fill="#F8FAFC" fill-opacity="0.95"/>
        <path d="M-18 16 L0 6 L18 16" stroke="#111827" stroke-opacity="0.7" stroke-width="4" fill="none" stroke-linecap="round" stroke-linejoin="round"/>
        <path d="M-10 40 C -6 26, 6 26, 10 40" stroke="#111827" stroke-opacity="0.55" stroke-width="4" fill="none" stroke-linecap="round"/>
        <path d="M-6 -24 L6 -24" stroke="#111827" stroke-opacity="0.65" stroke-width="4" stroke-linecap="round"/>
      </g>

      <path d="M162 38 C 190 40, 206 52, 214 70" stroke="url(#glow)" stroke-width="10" stroke-linecap="round"/>
    </g>
  </g>

  <g transform="translate(90 120)" opacity="0.96">
    <rect x="0" y="0" width="680" height="280" rx="26" fill="#0B1020" fill-opacity="0.45" stroke="#FFFFFF" stroke-opacity="0.14"/>
    <text x="42" y="78" font-family="ui-sans-serif, system-ui, -apple-system, Segoe UI, Roboto, Arial" font-size="44" font-weight="800" fill="#F8FAFC">Career Quest</text>
    <text x="42" y="122" font-family="ui-sans-serif, system-ui, -apple-system, Segoe UI, Roboto, Arial" font-size="18" font-weight="600" fill="#E5E7EB" opacity="0.9">Un jeu réel: actions concrètes, preuves par liens, XP et progression</text>

    <g transform="translate(42 160)">
      <rect x="0" y="0" width="210" height="46" rx="14" fill="#111827" stroke="#FFFFFF" stroke-opacity="0.12"/>
      <text x="16" y="30" font-family="ui-sans-serif, system-ui, -apple-system, Segoe UI, Roboto, Arial" font-size="14" font-weight="700" fill="#C7D2FE">Build Portfolio</text>
    </g>

    <g transform="translate(270 160)">
      <rect x="0" y="0" width="210" height="46" rx="14" fill="#111827" stroke="#FFFFFF" stroke-opacity="0.12"/>
      <text x="16" y="30" font-family="ui-sans-serif, system-ui, -apple-system, Segoe UI, Roboto, Arial" font-size="14" font-weight="700" fill="#C7D2FE">Develop Skills</text>
    </g>

    <g transform="translate(498 160)">
      <rect x="0" y="0" width="140" height="46" rx="14" fill="#111827" stroke="#FFFFFF" stroke-opacity="0.12"/>
      <text x="16" y="30" font-family="ui-sans-serif, system-ui, -apple-system, Segoe UI, Roboto, Arial" font-size="14" font-weight="700" fill="#C7D2FE">Outreach</text>
    </g>

    <g transform="translate(42 224)">
      <rect x="0" y="0" width="596" height="10" rx="5" fill="#FFFFFF" fill-opacity="0.10"/>
      <rect x="0" y="0" width="310" height="10" rx="5" fill="#22C55E" fill-opacity="0.85"/>
    </g>

    <text x="42" y="264" font-family="ui-sans-serif, system-ui, -apple-system, Segoe UI, Roboto, Arial" font-size="12" font-weight="700" fill="#E5E7EB" opacity="0.75">Progression illustrée · réaliste · exigeante</text>
  </g>
</svg>
